<svg xmlns="http://www.w3.org/2000/svg" width="90" height="90" viewBox="0 0 90 90"><rect width="90" height="90" rx="1.2" fill="#caaae5"/><path d="M23.16,58.66l2-7.67c6.64,4.54,13.44,6.43,23.11,6.43,7.45,0,9.66-2.22,9.66-4.38,0-4.26-7-3.88-14.58-4.15-13-.43-19.16-4.54-19.16-12.42,0-8.15,7.82-11.72,18.73-11.72,9,0,16.63,2,23,6.43L64,39c-6.21-4.42-14.85-6.37-23-6.37-4.16,0-7.89,1.08-7.89,3.89,0,3.29,4,4.21,12.42,4.37,11.77.22,21.33,2.27,21.33,12.2,0,8.05-8.37,12.21-20.19,12.21C36.87,65.25,27.53,62.49,23.16,58.66Z" fill="#22254b"/></svg>